<svg clip-rule="evenodd" fill-rule="evenodd" stroke-linejoin="round" stroke-miterlimit="2" viewBox="0 0 108 108" xmlns="http://www.w3.org/2000/svg"><g fill-rule="nonzero" transform="translate(-513.358 2.20823)"><path d="m567.478-1.708v30.437l12.422-9.265z" fill="#115e6e"/><path d="m579.9 19.464-12.422 9.265 33.593 3.162z" fill="#00b0ab"/><path d="m570.624 35.037 9.276 9.27 21.171-12.416z" fill="#115e6e"/><path d="m567.478 65.479 12.422-21.166-9.276-9.276z" fill="#00b0ab"/><path d="m567.478-1.708v30.437l-12.427-9.265z" fill="#00b0ab"/><path d="m555.051 19.464 12.427 9.265-33.599 3.162z" fill="#115e6e"/><path d="m564.327 35.037-9.276 9.27-21.167-12.416z" fill="#00b0ab"/><path d="m567.478 65.479-12.427-21.166 9.276-9.276z" fill="#115e6e"/><path d="m30.094 103.938v-2.537c0-1.536 1.021-2.526 3.14-2.526 2.12 0 3.146.99 3.146 2.526v2.537c0 2.135-1.026 2.979-3.146 2.979-2.119 0-3.14-.844-3.14-2.979zm-4.292-2.771c.011-.438-.03-.875-.292-1.12-.265-.245-.859-.333-1.125-.333-1.047 0-1.463.489-1.51.599-.042.083-.287.276-.287 1.604v2.062c0 1.891.803 2.115 1.787 2.115.385 0 1.562-.104 1.578-1.615h1.318c.052 2.438-2.177 2.438-2.828 2.438-1.245 0-3.157-.063-3.157-3.052v-2.188c0-2.177 1.245-2.802 3.209-2.802 1.984 0 2.744.792 2.619 2.292zm26.776 5.593v-7.718h2.964c1.343 0 2.786.38 2.786 2.203 0 1.75-1.776 2.114-2.797 2.114h-1.677v3.401zm13.521 0h1.464l-3.214-7.724h-1.688l-3.208 7.724h1.245l2.682-6.718h.03zm-25.052 0h-1.193v-7.724h2.063l2.521 6.48h.03l2.547-6.48h2.104v7.724h-1.276v-6.864h-.027l-2.797 6.864h-1.203l-2.744-6.864h-.027zm43.109-7.724h1.292l-2.734 4.782v2.937h-1.271v-2.937l-2.688-4.782h1.422l1.958 3.735zm-7.724 0v7.719h-1.573l-4.036-6.359h-.027v6.359h-1.067v-7.719h1.672l3.953 6.277h.026v-6.277zm-41.354 4.943v-2.609c0-1.615-1.443-1.667-1.844-1.667s-1.838.052-1.838 1.667v2.609c0 1.688.635 2.115 1.838 2.115 1.209 0 1.844-.427 1.844-2.115zm18.776-1.479h1.401c.526 0 1.771-.104 1.771-1.312 0-1.178-1.135-1.292-1.411-1.292h-1.761zm-26.786-26.135h3.708v16.224h-3.708zm80.166 0v16.224h-4.927l-13.541-13.079h-.079v13.079h-3.552v-16.224h5.485l12.916 12.541h.073v-12.541zm-30.338 16.224h4.042l-10.23-16.224h-4.078l-10.229 16.224h4.047l8.167-13.266h.104zm-32.255-12.995h-8.99v-3.229h21.677v3.229h-8.979v12.995h-3.708zm-35.151 0h-8.99v-3.229h21.682v3.229h-8.984v12.995h-3.708z" fill="#616363" transform="translate(513.358 -2.20823)"/><path d="m567.478-1.708v30.437l12.422-9.265z" fill="#115e6e"/><path d="m579.9 19.464-12.422 9.265 33.593 3.162z" fill="#00b0ab"/><path d="m570.624 35.037 9.276 9.27 21.171-12.416z" fill="#115e6e"/><path d="m567.478 65.479 12.422-21.166-9.276-9.276z" fill="#00b0ab"/><path d="m567.478-1.708v30.437l-12.427-9.265z" fill="#00b0ab"/><path d="m555.051 19.464 12.427 9.265-33.599 3.162z" fill="#115e6e"/><path d="m564.327 35.037-9.276 9.27-21.167-12.416z" fill="#00b0ab"/><path d="m567.478 65.479-12.427-21.166 9.276-9.276z" fill="#115e6e"/></g></svg>